<svg id="visual" viewBox="0 0 900 600" width="900" height="600" xmlns="http://www.w3.org/2000/svg" xmlns:xlink="http://www.w3.org/1999/xlink" version="1.1"><rect x="0" y="0" width="900" height="600" fill="#12171c"></rect><path d="M0 368L21.5 371.2C43 374.3 86 380.7 128.8 383.3C171.7 386 214.3 385 257.2 383.7C300 382.3 343 380.7 385.8 391.5C428.7 402.3 471.3 425.7 514.2 422.5C557 419.3 600 389.7 642.8 389C685.7 388.3 728.3 416.7 771.2 425.2C814 433.7 857 422.3 878.5 416.7L900 411L900 601L878.5 601C857 601 814 601 771.2 601C728.3 601 685.7 601 642.8 601C600 601 557 601 514.2 601C471.3 601 428.7 601 385.8 601C343 601 300 601 257.2 601C214.3 601 171.7 601 128.8 601C86 601 43 601 21.5 601L0 601Z" fill="#252f3a"></path><path d="M0 422L21.5 427.2C43 432.3 86 442.7 128.8 442.3C171.7 442 214.3 431 257.2 435.3C300 439.7 343 459.3 385.8 460.3C428.7 461.3 471.3 443.7 514.2 439.8C557 436 600 446 642.8 445.5C685.7 445 728.3 434 771.2 431C814 428 857 433 878.5 435.5L900 438L900 601L878.5 601C857 601 814 601 771.2 601C728.3 601 685.7 601 642.8 601C600 601 557 601 514.2 601C471.3 601 428.7 601 385.8 601C343 601 300 601 257.2 601C214.3 601 171.7 601 128.8 601C86 601 43 601 21.5 601L0 601Z" fill="#202933"></path><path d="M0 496L21.5 494.7C43 493.3 86 490.7 128.8 491.7C171.7 492.7 214.3 497.3 257.2 495.5C300 493.7 343 485.3 385.8 476C428.7 466.7 471.3 456.3 514.2 458.3C557 460.3 600 474.7 642.8 483.2C685.7 491.7 728.3 494.3 771.2 495C814 495.7 857 494.3 878.5 493.7L900 493L900 601L878.5 601C857 601 814 601 771.2 601C728.3 601 685.7 601 642.8 601C600 601 557 601 514.2 601C471.3 601 428.7 601 385.8 601C343 601 300 601 257.2 601C214.3 601 171.7 601 128.8 601C86 601 43 601 21.5 601L0 601Z" fill="#1c242c"></path><path d="M0 483L21.5 482.7C43 482.3 86 481.7 128.8 485.2C171.7 488.7 214.3 496.3 257.2 499.2C300 502 343 500 385.8 496.7C428.7 493.3 471.3 488.7 514.2 485.8C557 483 600 482 642.8 488.5C685.7 495 728.3 509 771.2 513.2C814 517.3 857 511.7 878.5 508.8L900 506L900 601L878.5 601C857 601 814 601 771.2 601C728.3 601 685.7 601 642.8 601C600 601 557 601 514.2 601C471.3 601 428.7 601 385.8 601C343 601 300 601 257.2 601C214.3 601 171.7 601 128.8 601C86 601 43 601 21.5 601L0 601Z" fill="#181e25"></path><path d="M0 543L21.5 546.8C43 550.7 86 558.3 128.8 563.3C171.7 568.3 214.3 570.7 257.2 565C300 559.3 343 545.7 385.8 540.5C428.7 535.3 471.3 538.7 514.2 537.7C557 536.7 600 531.3 642.8 530.2C685.7 529 728.3 532 771.2 534.2C814 536.3 857 537.7 878.5 538.3L900 539L900 601L878.5 601C857 601 814 601 771.2 601C728.3 601 685.7 601 642.8 601C600 601 557 601 514.2 601C471.3 601 428.7 601 385.8 601C343 601 300 601 257.2 601C214.3 601 171.7 601 128.8 601C86 601 43 601 21.5 601L0 601Z" fill="#14191f"></path></svg>